# xmcd
#
# Track frame offsets: 
#        150
#        19565
#        39978
#        53405
#        77640
#        106398
#        125983
#        152530
#        184958
#
# Disc length: 2846 seconds
#
# Revision: 0
# Processed by: cddbd v1.5.1PL0 Copyright (c) Steve Scherf et al.
# Submitted via: ExactAudioCopy v0.95a5
#
DISCID=670b1c09
DTITLE=Buttermilk - Star Spangled Bubblegum
DYEAR=1993
DGENRE=Blues
TTITLE0=Chickamo Rd.
TTITLE1=Chicago
TTITLE2=Situation
TTITLE3=Homeless Ed's
TTITLE4=Suckatash
TTITLE5=Love is an Ocean
TTITLE6=Beautiful Tuesday
TTITLE7=The Turnaround
TTITLE8=Amanda
EXTD=
EXTT0=
EXTT1=
EXTT2=
EXTT3=
EXTT4=
EXTT5=
EXTT6=
EXTT7=
EXTT8=
PLAYORDER=
